<?xml version="1.0" encoding="UTF-8"?>
<svg width="48px" height="56px" viewBox="0 0 48 56" version="1.1" xmlns="http://www.w3.org/2000/svg" xmlns:xlink="http://www.w3.org/1999/xlink">
    <title>brain2</title>
    <g id="é¡µé¢-1" stroke="none" stroke-width="1" fill="none" fill-rule="evenodd">
        <g id="1" transform="translate(-839.000000, -149.000000)" fill="#03045E" fill-rule="nonzero">
            <g id="main-goal" transform="translate(660.000000, 125.000000)">
                <g id="brain2" transform="translate(179.000000, 24.000000)">
                    <path d="M47.9972515,20.7715268 C47.9972515,9.46328714 38.6859494,0.146367435 27.2414361,0.00180700537 C27.15179,0.000903502686 27.0639734,0 26.9752421,0 C17.0931321,0 8.45600521,6.95245317 6.37676464,16.6226424 C5.86267172,19.008793 5.79863879,21.4699343 6.18466586,23.9446282 L3.23972989e-15,34.8706862 L6.8378017,36.8041819 L6.85152304,47.8684758 L15.9981691,47.8684758 L15.9981691,56 L17.8276813,56 L17.8276813,46.0614705 L8.67920569,46.0614705 L8.6645696,35.4416999 L2.72414361,33.7611849 L8.09467656,24.2744067 L8.04070595,23.9599877 C7.63729852,21.6045562 7.67846254,19.2626773 8.16694229,16.9984995 C10.0833563,8.08183153 18.0856425,1.73382166 27.2185672,1.80881238 C37.6678259,1.94072377 46.1686541,10.4481051 46.1686541,20.7724303 L46.1713984,24.0693116 C46.1759722,31.3081751 42.5681742,38.0844452 36.5188922,42.196286 L36.1228029,42.4664333 L36.1228029,56 L37.952315,56 L37.952315,43.4096901 C44.2586434,38.9364483 48.0045696,31.7427599 47.9999958,24.0675046 L47.9972515,20.7715268 Z" id="Shape"></path>
                    <path d="M42.5260954,22.5704006 C42.5260954,21.9108436 42.3980296,21.2603217 42.1455569,20.6305803 C42.985303,19.6538939 43.4408515,18.4404898 43.4408515,17.1493845 C43.4408515,14.4677885 41.4594898,12.2352334 38.8661564,11.8033591 C38.8670711,11.7789645 38.8670711,11.7527629 38.8670711,11.7283684 C38.8670711,8.2417515 35.9938223,5.40384957 32.4637785,5.40384957 C31.5444487,5.40384957 30.6379254,5.60171666 29.8027531,5.98118778 C28.7873739,5.03250996 27.4600628,4.50034688 26.060486,4.50034688 C24.3096428,4.50034688 22.6950984,5.32434133 21.6696568,6.69856892 C21.023839,6.44016715 20.341431,6.30735225 19.6571934,6.30735225 C16.6302655,6.30735225 14.1686569,8.73867798 14.1686569,11.7283684 C14.1686569,11.8331747 14.172316,11.9370775 14.1787192,12.0436908 C12.0089178,12.7926945 10.5096326,14.8183476 10.5096326,17.1493845 C10.5096326,18.3058679 10.8929154,19.4298253 11.5981923,20.3658541 C11.4811036,20.8067634 11.4243887,21.2359271 11.4243887,21.6668979 C11.4243887,24.6565883 13.8859973,27.087914 16.9129252,27.087914 C17.5816119,27.087914 18.2402362,26.9614237 18.8778212,26.7111534 C19.2418942,27.0147303 19.6453016,27.2695181 20.0816402,27.4746132 L20.8637567,25.8401768 C20.4310771,25.6377922 20.048709,25.3622239 19.7276296,25.0197964 L19.2473827,24.5084139 L18.6253486,24.8372888 C18.0700916,25.1318307 17.4928805,25.2809087 16.9129252,25.2809087 C14.8949733,25.2809087 13.2539009,23.6600248 13.2539009,21.6668979 C13.2539009,21.2838128 13.3279961,20.8925961 13.4789308,20.4697569 L13.6609673,19.9619884 L13.2959796,19.5626402 C12.6785193,18.8886272 12.3391448,18.0321066 12.3391448,17.1493845 C12.3391448,15.4227909 13.5786393,13.9518885 15.2919774,13.618496 L15.2919774,13.618496 C15.5215812,13.5697068 15.754844,13.5353737 15.9981691,13.5353737 C17.1589946,13.5353737 18.2256001,14.0612123 18.9244738,14.979171 L20.386254,13.8922573 C19.3370288,12.5171262 17.7380352,11.7283684 15.9981691,11.7283684 C15.9981691,9.73524144 17.6392415,8.11435763 19.6571934,8.11435763 C19.8712463,8.11435763 20.0779812,8.14146271 20.2828866,8.17669931 C20.3624704,8.19115535 20.4411394,8.2065149 20.5188936,8.22639196 C20.6204316,8.25078653 20.7173957,8.28511963 20.8161894,8.31764573 C21.0604292,8.40257498 21.3010101,8.50557429 21.5342729,8.6447137 L21.7574734,8.7775286 C22.6969279,9.43166454 23.3162177,10.5077362 23.3162177,11.7283684 L25.1457299,11.7283684 C25.1457299,10.097546 24.406607,8.64200319 23.2485258,7.64815024 C23.9345928,6.81060325 24.9545459,6.30735225 26.060486,6.30735225 C27.1572785,6.30735225 28.1909529,6.80427873 28.8971446,7.67073781 L29.4011752,8.28963715 L30.0872422,7.87583292 C30.8062405,7.44034462 31.629521,7.21085494 32.4637785,7.21085494 C34.9857611,7.21085494 37.0375589,9.23741146 37.0375589,11.7283684 C37.0375589,11.7545699 37.0302409,11.785289 37.0302409,11.8114906 C34.4423959,12.2460754 32.4637785,14.4714025 32.4637785,17.1493845 L34.2932907,17.1493845 C34.2932907,15.1806521 35.8959434,13.5823559 37.8791345,13.5426018 L38.0007971,13.5353737 C39.9958801,13.5606718 41.6113393,15.1725206 41.6113393,17.1493845 C41.6113393,18.154983 41.1923811,19.0919153 40.4322188,19.7894193 L39.9144668,20.2637582 L40.247438,20.8781401 C40.5456485,21.4274697 40.6965833,21.9975799 40.6965833,22.5704006 C40.6965833,24.5635275 39.0555109,26.1844114 37.0375589,26.1844114 C36.1520751,26.1844114 35.2903748,25.8537294 34.6107111,25.2519966 L33.6053941,24.3638534 L33.1416128,25.6143012 C32.7107627,26.7725916 31.6871506,27.6498927 30.4686955,27.903777 L30.845575,29.6719317 C32.3146733,29.3656443 33.5605711,28.4982817 34.340858,27.2776496 C35.162309,27.7429535 36.0898716,27.9914167 37.0375589,27.9914167 C40.0644868,27.9914167 42.5260954,25.560091 42.5260954,22.5704006 Z" id="Shape"></path>
                    <polygon id="Shape" points="23.3162177 45.1579678 24.2309738 31.6054275 18.7424373 27.9914167 27.8899981 12.6318711 26.9752421 25.2809087 33.3785346 29.7984221"></polygon>
                </g>
            </g>
        </g>
    </g>
</svg>