<?xml version="1.0" encoding="UTF-8"?>
<svg width="48px" height="52px" viewBox="0 0 48 52" version="1.1" xmlns="http://www.w3.org/2000/svg" xmlns:xlink="http://www.w3.org/1999/xlink">
    <title>brain3</title>
    <g id="é¡µé¢-1" stroke="none" stroke-width="1" fill="none" fill-rule="evenodd">
        <g id="1" transform="translate(-1464.000000, -151.000000)" fill-rule="nonzero">
            <g id="main-goal" transform="translate(1280.000000, 125.000000)">
                <g id="brain3" transform="translate(184.000000, 26.000000)">
                    <path d="M44.5985055,19.297871 C44.5985055,16.1183226 43.7970039,12.9656129 42.2789956,10.1802581 L40.7813861,10.9745161 C42.1659525,13.5158065 42.8977583,16.3942581 42.8977583,19.2987097 L42.9003081,22.3591613 C42.9054078,29.0780645 39.5523604,35.3683871 33.93165,39.1861935 L33.5636222,39.436129 L33.5636222,52 L35.2635195,52 L35.2635195,40.3125806 C41.1239154,36.1592903 44.6053051,29.4814839 44.6002054,22.3574839 L44.5985055,19.297871 Z" id="Shape" fill="#03045E"></path>
                    <path d="M8.05156355,32.916 L2.53199703,31.356 L7.52204554,22.5495484 L7.47189857,22.2576774 C7.09707122,20.0736774 7.13531891,17.8989032 7.58919149,15.7954194 C9.35453483,7.59116129 16.6827921,1.69335484 25.0658356,1.69335484 C25.1406311,1.69335484 25.2162765,1.69419355 25.2919219,1.69503226 C29.7490527,1.75122581 33.9962461,3.4403871 37.2523993,6.45135484 L38.4142791,5.22767742 C34.8487446,1.92987097 30.1952757,0.0796774194 25.3131707,0.0176129032 C25.2298757,0.0167741935 25.1482806,0.0159354839 25.0658356,0.0159354839 C15.8846903,0.0159354839 7.85862521,6.46980645 5.92584198,15.4465161 C5.44902079,17.6632258 5.38952438,19.947871 5.74735276,22.2434194 L0,32.3859355 L6.35336615,34.1807742 L6.36696533,44.4516129 L14.8656019,44.4516129 L14.8656019,52 L16.5654992,52 L16.5654992,42.7741935 L8.06516273,42.7741935 L8.05156355,32.916 Z" id="Shape" fill="#03045E"></path>
                    <path d="M40.3640613,18.4516129 C40.3640613,16.6148387 39.3347735,14.924 37.6782236,14.04 L36.8699224,15.516129 C37.9774055,16.1065806 38.664164,17.2312903 38.664164,18.4516129 C38.664164,19.3850968 38.2748876,20.2548387 37.5685802,20.9023226 L37.0875093,21.3426452 L37.3977406,21.9138065 C37.6739739,22.4220645 37.8142154,22.9504516 37.8142154,23.483871 C37.8142154,25.3340645 36.2894075,26.8387097 34.4144208,26.8387097 C33.5916705,26.8387097 32.7910189,26.5317419 32.159507,25.9731613 L31.2254135,25.1487097 L30.7936396,26.3103226 C30.3040691,27.6287742 29.0265963,28.516129 27.6148316,28.516129 C26.3781563,28.516129 25.2451748,27.8350968 24.6536105,26.7783226 C25.4347133,25.8951613 25.9149343,24.746129 25.9149343,23.483871 C25.9149343,20.7085806 23.6277225,18.4516129 20.8152424,18.4516129 L20.8152424,20.1290323 C22.6902291,20.1290323 24.215037,21.6336774 24.215037,23.483871 C24.215037,24.3871613 23.8470092,25.2057419 23.2571449,25.8087742 L23.0718561,25.9723226 C22.9137656,26.1123871 22.7454758,26.2356774 22.5686865,26.3430323 L22.5686865,26.3430323 C22.3969968,26.4470323 22.2168077,26.5342581 22.0315189,26.6063871 C21.9856217,26.624 21.9371746,26.6340645 21.8904275,26.65 C21.7450862,26.6994839 21.5988951,26.7456129 21.4493041,26.7749677 C21.2427666,26.8143871 21.0319793,26.8387097 20.8152424,26.8387097 C19.8700995,26.8387097 18.9887028,26.4545806 18.3325424,25.7576129 L17.8863194,25.2829032 L17.3083543,25.5881935 C16.7907356,25.8616129 16.254418,26 15.7155505,26 C13.8405638,26 12.3157559,24.4953548 12.3157559,22.6451613 C12.3157559,22.2912258 12.3846018,21.9280645 12.5256932,21.533871 L12.694833,21.0625161 L12.3548536,20.6918065 C11.7811382,20.0669677 11.4658073,19.271871 11.4658073,18.4524516 C11.4658073,16.9041935 12.5435422,15.5840645 14.053051,15.2167097 C14.1541949,15.1907097 14.2544888,15.1613548 14.3581825,15.1429032 L14.3649821,15.1420645 C14.5273223,15.1135484 14.6939122,15.0967742 14.8656019,15.0967742 C15.9441867,15.0967742 16.9352268,15.5849032 17.5845876,16.4370323 L18.9428055,15.4280645 C17.9687644,14.1515484 16.4830541,13.4193548 14.8656019,13.4193548 C14.8656019,11.5691613 16.3904097,10.0645161 18.2653965,10.0645161 C18.8748096,10.0645161 19.4612742,10.2297419 20.0094911,10.5568387 L20.1072352,10.6155484 C21.0404788,11.2143871 21.6651911,12.2418065 21.6651911,13.4201935 L23.3650884,13.4201935 C23.3650884,11.9071613 22.6817296,10.5509677 21.6073946,9.62754839 C22.244856,8.85258065 23.1899989,8.38709677 24.215037,8.38709677 C25.2341254,8.38709677 26.1954174,8.8483871 26.8515777,9.65270968 L27.3207494,10.2272258 L27.9573609,9.84309677 C28.6254205,9.43883871 29.3895244,9.22580645 30.1646776,9.22580645 C31.2968092,9.22580645 32.3617948,9.66025806 33.1632964,10.4486452 L34.3634239,9.26103226 C33.2406417,8.15645161 31.7489818,7.5483871 30.1646776,7.5483871 C29.3104792,7.5483871 28.46818,7.73206452 27.6921769,8.08432258 C26.7487339,7.20367742 25.5154584,6.70967742 24.215037,6.70967742 C22.5916351,6.70967742 21.0940256,7.47290323 20.1395332,8.74354839 C19.5581684,8.51625806 18.9275065,8.38709677 18.2653965,8.38709677 C15.4529164,8.38709677 13.1657046,10.6440645 13.1657046,13.4193548 C13.1657046,13.5166452 13.1691044,13.6139355 13.175054,13.7120645 C11.1589758,14.4073548 9.76590998,16.2877419 9.76590998,18.4516129 C9.76590998,19.526 10.1228884,20.5685161 10.7781988,21.4374194 C10.6685554,21.8475484 10.6158586,22.2467742 10.6158586,22.6451613 C10.6158586,25.4204516 12.9030704,27.6774194 15.7155505,27.6774194 C16.336863,27.6774194 16.948826,27.56 17.5412402,27.3285161 C18.4591848,28.0984516 19.6006658,28.516129 20.8152424,28.516129 C21.6966392,28.516129 22.559337,28.2846452 23.3225909,27.851871 C24.2447852,29.2852258 25.8605376,30.1935484 27.6148316,30.1935484 C29.3691256,30.1935484 30.9857279,29.2852258 31.9079222,27.851871 C32.6711761,28.2846452 33.533024,28.516129 34.4144208,28.516129 C37.2269009,28.516129 39.5141127,26.2591613 39.5141127,23.483871 C39.5141127,22.8707742 39.3951199,22.2669032 39.1605341,21.6831613 C39.9407869,20.7765161 40.3640613,19.650129 40.3640613,18.4516129 Z" id="Shape" fill="#03045E"></path>
                    <path d="M26.5022488,18.205871 L25.3004214,17.0199355 L41.4196976,1.11380645 C42.1472536,0.395870968 43.1153451,0 44.1454829,0 C46.2712044,0 48,1.70593548 48,3.80354839 C48,4.82006452 47.5988242,5.77535484 46.8712682,6.49329032 L30.7519921,22.3994194 L29.5501647,21.2134839 L26.5022488,18.205871 Z" id="Shape" fill="#03045E"></path>
                    <polygon id="Rectangle-path" fill="#FFFFFF" transform="translate(43.325433, 4.612527) rotate(135.000000) translate(-43.325433, -4.612527) " points="42.4558955 0.431885858 44.1458336 0.441828793 44.1949696 8.79316744 42.5050316 8.78322451"></polygon>
                    <polygon id="Shape" fill="#FFFFFF" points="37.1997025 4.78651613 39.5736091 7.12903226 28.0262068 18.5237419 24.8023515 15.3425161 23.6005241 16.5284516 31.250062 24.0768387 32.4518894 22.8909032 29.2280341 19.7096774 40.7754365 8.31496774 43.1493431 10.6574839 44.3511705 9.47154839 38.4015299 3.60058065"></polygon>
                </g>
            </g>
        </g>
    </g>
</svg>