<?xml version="1.0" encoding="UTF-8"?>
<svg width="24px" height="24px" viewBox="0 0 24 24" version="1.1" xmlns="http://www.w3.org/2000/svg" xmlns:xlink="http://www.w3.org/1999/xlink">
    <title>home</title>
    <g id="页面-1" stroke="none" stroke-width="1" fill="none" fill-rule="evenodd">
        <g id="Top" transform="translate(-48.000000, -32.000000)" fill="#FFFFFF">
            <path d="M50,32 L56.2857143,32 C57.3902838,32 58.2857143,32.8954305 58.2857143,34 L58.2857143,40.2857143 C58.2857143,41.3902838 57.3902838,42.2857143 56.2857143,42.2857143 L50,42.2857143 C48.8954305,42.2857143 48,41.3902838 48,40.2857143 L48,34 C48,32.8954305 48.8954305,32 50,32 Z M50,45.7142857 L56.2857143,45.7142857 C57.3902838,45.7142857 58.2857143,46.6097162 58.2857143,47.7142857 L58.2857143,54 C58.2857143,55.1045695 57.3902838,56 56.2857143,56 L50,56 C48.8954305,56 48,55.1045695 48,54 L48,47.7142857 C48,46.6097162 48.8954305,45.7142857 50,45.7142857 Z M63.7142857,32 L70,32 C71.1045695,32 72,32.8954305 72,34 L72,54 C72,55.1045695 71.1045695,56 70,56 L63.7142857,56 C62.6097162,56 61.7142857,55.1045695 61.7142857,54 L61.7142857,34 C61.7142857,32.8954305 62.6097162,32 63.7142857,32 Z" id="home"></path>
        </g>
    </g>
</svg>