<?xml version="1.0" encoding="UTF-8"?>
<svg width="24px" height="24px" viewBox="0 0 24 24" version="1.1" xmlns="http://www.w3.org/2000/svg" xmlns:xlink="http://www.w3.org/1999/xlink">
    <title>Related links</title>
    <g id="页面-1" stroke="none" stroke-width="1" fill="none" fill-rule="evenodd">
        <g id="首页" transform="translate(-98.000000, -376.000000)" fill="#FFFFFF" fill-rule="nonzero">
            <g id="main-goal" transform="translate(80.000000, 358.000000)">
                <g id="Related-links" transform="translate(18.000000, 18.000000)">
                    <rect id="3" opacity="0" x="0" y="0" width="24" height="24"></rect>
                    <path d="M10.1203125,8.203125 C10.9828125,8.203125 11.7960938,8.38828125 12.5648438,8.75625 C13.1414063,9.028125 13.6617188,9.3984375 14.1304688,9.86484375 C14.596875,10.33125 14.9671875,10.8539063 15.2390625,11.428125 C14.86875,11.7984375 14.4234375,11.98125 13.903125,11.98125 C13.7203125,11.98125 13.5375,11.953125 13.35,11.8992188 C13.0359375,11.3882813 12.6046875,10.959375 12.09375,10.6429688 C11.4890625,10.275 10.8304687,10.0898438 10.1226563,10.0898438 C9.63046875,10.0898438 9.15234375,10.1835938 8.690625,10.3710938 C8.22890625,10.5585938 7.8140625,10.8351563 7.45078125,11.1984375 L4.61484375,14.034375 C4.2515625,14.3976562 3.975,14.8125 3.7875,15.2742187 C3.60234375,15.7289062 3.50625,16.2140625 3.50625,16.70625 C3.50625,17.1984375 3.6,17.6765625 3.7875,18.1382812 C3.975,18.6023437 4.24921875,19.0148438 4.61484375,19.378125 C4.98046875,19.74375 5.39296875,20.0179687 5.8546875,20.2054687 C6.309375,20.390625 6.796875,20.4867187 7.2890625,20.4867187 C7.78125,20.4867187 8.259375,20.3929687 8.72109375,20.2054687 C9.1828125,20.0179687 9.59765625,19.7414063 9.9609375,19.378125 L11.9460938,17.3929687 C12.5765625,17.5640625 13.228125,17.6507812 13.903125,17.6507812 C14.0109375,17.6507812 14.1632813,17.6460937 14.3601563,17.6367187 C14.2851562,17.71875 14.2101563,17.8007812 14.1328125,17.8804687 L11.296875,20.7164062 C10.7507812,21.2625 10.1320312,21.675 9.43828125,21.95625 C8.75625,22.2351562 8.025,22.378125 7.28671875,22.378125 C6.5484375,22.378125 5.82890625,22.2375 5.13515625,21.9539062 C4.4390625,21.6703125 3.8203125,21.2578125 3.2765625,20.7164062 C2.73046875,20.1703125 2.31796875,19.5515625 2.03671875,18.8601562 C1.7578125,18.178125 1.61484375,17.446875 1.61484375,16.7085937 C1.61484375,15.9703125 1.7578125,15.2390625 2.03671875,14.5570312 C2.31796875,13.865625 2.73046875,13.246875 3.2765625,12.7007812 L6.1125,9.86484375 C6.16640625,9.8109375 6.2484375,9.7359375 6.35625,9.63515625 C6.88359375,9.16640625 7.471875,8.8125 8.12109375,8.56875 C8.7703125,8.32734375 9.4359375,8.20546875 10.1203125,8.203125 L10.1203125,8.203125 Z M16.7367187,1.58903415 C17.475,1.58903415 18.20625,1.73203125 18.8882812,2.0109375 C19.5796875,2.28984375 20.1984375,2.7046875 20.746875,3.25078125 C21.2929687,3.796875 21.7078125,4.415625 21.9867187,5.10703125 C22.265625,5.79140625 22.4085937,6.5203125 22.4062784,7.25859375 C22.4062784,7.996875 22.2632812,8.7140625 21.9820312,9.41015625 C21.6984375,10.10625 21.2859375,10.725 20.7445312,11.2664062 L17.9085937,14.1023438 C17.8546875,14.1585938 17.7726562,14.2335938 17.6648437,14.3320313 C17.1398437,14.8007812 16.5515625,15.1546875 15.9,15.3984375 C15.2601562,15.6398438 14.5828125,15.7640625 13.8984375,15.7640625 C13.0382812,15.7640625 12.2226562,15.5789063 11.4539062,15.2109375 C10.8773437,14.9390625 10.3570312,14.56875 9.88828125,14.1023438 C9.421875,13.6359375 9.0515625,13.1132812 8.7796875,12.5390625 C9.14765625,12.16875 9.59296875,11.9859375 10.115625,11.9859375 C10.2984375,11.9859375 10.4835937,12.0140625 10.66875,12.0679687 C10.9828125,12.5789062 11.4117187,13.0078125 11.9226562,13.3242188 C12.5296875,13.6921875 13.1859375,13.8773438 13.89375,13.8773438 C14.3859375,13.8773438 14.8640625,13.7835938 15.3257812,13.5960938 C15.7898437,13.4085937 16.2023437,13.1320313 16.565625,12.76875 L19.4015625,9.9328125 C19.7671875,9.56953125 20.0414062,9.1546875 20.2289062,8.69296875 C20.4140625,8.23828125 20.5101562,7.753125 20.5101562,7.2609375 C20.5101562,6.76875 20.4164062,6.290625 20.2289062,5.82890625 C20.0414062,5.36484375 19.7648437,4.95234375 19.4015625,4.5890625 C19.0359375,4.2234375 18.6234375,3.94921875 18.1617187,3.76171875 C17.7070312,3.5765625 17.2195312,3.48046875 16.7296875,3.48046875 C16.2375,3.48046875 15.759375,3.57421875 15.2976562,3.76171875 C14.8335937,3.94921875 14.4210937,4.22578125 14.0578125,4.5890625 L12.0703125,6.57421875 C11.4398437,6.403125 10.7882813,6.31640625 10.1132812,6.31640625 C10.0054687,6.31640625 9.853125,6.32109375 9.65625,6.33046875 C9.73125,6.2484375 9.80625,6.16640625 9.8859375,6.08671875 L12.721875,3.25078125 C13.2632812,2.709375 13.8820312,2.296875 14.578125,2.01328125 C15.2789062,1.7296875 15.9960937,1.58671875 16.7367187,1.58903415 L16.7367187,1.58903415 Z" id="0"></path>
                </g>
            </g>
        </g>
    </g>
</svg>